<?xml version="1.0" encoding="UTF-8" standalone="no"?>
<svg width="100%" height="100%" viewBox="0 0 8 8" version="1.1" xmlns="http://www.w3.org/2000/svg"
     xml:space="preserve" style="fill-rule:evenodd;clip-rule:evenodd;stroke-linejoin:round;stroke-miterlimit:1.41421;"><path d="M6.232,0.877l-4.704,0c-0.288,0 -0.528,0.24 -0.528,0.528l0,4.704c0,0.288 0.24,0.528 0.528,0.528l2.352,0l0,-2.4l-0.72,0l0,-0.72l0.72,0l0,-0.72c0,-0.6 0.24,-0.96 0.96,-0.96l0.72,0l0,0.72l-0.312,0c-0.216,0 -0.408,0.192 -0.408,0.408l0,0.552l0.96,0l-0.12,0.72l-0.84,0l0,2.4l1.392,0c0.288,0 0.528,-0.24 0.528,-0.528l0,-4.704c0,-0.288 -0.24,-0.528 -0.528,-0.528Z" style="fill:#cdcdcd;fill-rule:nonzero;"/></svg>
